<svg height="395pt" viewBox="0 0 395.94668 395" width="395pt" xmlns="http://www.w3.org/2000/svg"><path d="m197.972656 7.300781c-105.566406 0-191.144531 78.5-191.144531 184.066407 0 105.566406 85.578125 198.226562 191.144531 198.226562z" fill="#fff35f"/><path d="m197.972656 7.300781v-6.828125c-54.480468-.003906-103.976562 20.273438-139.859375 54.320313-35.890625 34.027343-58.128906 81.925781-58.113281 136.574219.0078125 54.644531 22.121094 105.824218 57.867188 143.40625 35.730468 37.574218 85.289062 61.648437 140.105468 61.648437 1.796875 0 3.554688-.730469 4.828125-2 1.269531-1.269531 2-3.03125 2-4.828125v-382.292969c0-1.796875-.730469-3.554687-2-4.828125-1.269531-1.269531-3.027343-2-4.828125-2v6.828125h-6.824218v382.292969h6.824218v-6.828125c-50.75 0-96.765625-22.257813-130.214844-57.40625-33.4375-35.140625-54.113281-83.070313-54.105468-133.992187.019531-50.917969 20.566406-95.050782 53.859375-126.667969 33.300781-31.59375 79.375-50.570313 130.460937-50.574219v-6.824219h-6.824218z" fill="#54596e"/><path d="m143.359375 143.832031c-.003906-15.082031-12.222656-27.300781-27.304687-27.304687-15.085938.003906-27.304688 12.226562-27.308594 27.304687 0 3.769531 3.058594 6.828125 6.828125 6.828125s6.824219-3.058594 6.824219-6.828125c.015624-7.535156 6.113281-13.636719 13.65625-13.652343 7.539062.015624 13.636718 6.117187 13.652343 13.652343 0 3.769531 3.054688 6.828125 6.828125 6.828125 3.769532 0 6.824219-3.058594 6.824219-6.828125" fill="#54596e"/><path d="m29.566406 89.21875h-15.914062v30.746094c4.367187-10.8125 9.707031-21.09375 15.914062-30.746094" fill="#fff"/><path d="m95.574219 150.660156c-3.769531 0-6.828125-3.058594-6.828125-6.828125.003906-15.082031 12.222656-27.300781 27.308594-27.304687 15.082031.003906 27.300781 12.226562 27.304687 27.304687 0 3.769531-3.054687 6.828125-6.824219 6.828125-3.773437 0-6.828125-3.058594-6.828125-6.828125-.015625-7.535156-6.113281-13.636719-13.652343-13.652343-7.542969.015624-13.640626 6.117187-13.65625 13.652343 0 3.769531-3.054688 6.828125-6.824219 6.828125m68.265625-61.441406h-117.753906c-13.695313 19.011719-23.578126 40.929688-28.625 64.996094 7.492187 17.957031 25.210937 30.578125 45.878906 30.578125h50.8125c27.441406 0 49.6875-22.246094 49.6875-49.6875z" fill="#fff89f"/><path d="m46.085938 89.21875h-16.519532c-6.207031 9.652344-11.546875 19.929688-15.914062 30.746094v15.140625c0 6.773437 1.355468 13.226562 3.808594 19.109375 5.046874-24.066406 14.929687-45.984375 28.625-64.996094" fill="#989ba8"/><path d="m116.054688 116.527344c-15.085938.003906-27.304688 12.222656-27.308594 27.304687 0 3.769531 3.058594 6.828125 6.828125 6.828125s6.824219-3.058594 6.824219-6.828125c.015624-7.539062 6.113281-13.640625 13.65625-13.652343 7.539062.011718 13.636718 6.113281 13.652343 13.652343 0 3.769531 3.054688 6.828125 6.828125 6.828125 3.765625 0 6.824219-3.058594 6.824219-6.828125-.003906-15.082031-12.222656-27.300781-27.304687-27.304687" fill="#989ba8"/><path d="m13.652344 123.351562c.003906-9.445312 3.8125-17.933593 10-24.132812 6.199218-6.191406 14.6875-9.996094 24.132812-10h102.289063c7.597656.015625 13.753906 6.167969 13.765625 13.765625v13.542969c0 3.769531 3.058594 6.824218 6.828125 6.824218s6.824219-3.054687 6.824219-6.824218v-13.542969c-.003907-15.148437-12.273438-27.414063-27.417969-27.417969h-102.289063c-26.390625.003906-47.78124975 21.394532-47.785156 47.785156 0 3.773438 3.058594 6.828126 6.828125 6.828126s6.824219-3.054688 6.824219-6.828126zm0 0" fill="#54596e"/><path d="m15.246094 167.851562c-1.011719 7.71875-1.589844 15.605469-1.59375 23.679688.035156 50.859375 20.707031 98.726562 54.105468 133.828125 31.945313 33.566406 75.347657 55.375 123.390626 57.273437v-47.789062c-90.597657-3.570312-164.46875-77.800781-175.902344-166.992188" fill="#eee361"/><path d="m13.652344 191.53125v.089844c0 101.792968 82.523437 191.144531 184.320312 191.144531v-47.785156c-2.285156 0-4.558594-.042969-6.824218-.136719v47.789062c-48.042969-1.898437-91.449219-23.707031-123.390626-57.273437-33.398437-35.101563-54.070312-82.96875-54.105468-133.828125" fill="#54596e"/><path d="m197.972656 218.925781h-54.613281c0 30.164063 24.453125 54.613281 54.613281 54.613281zm0 0" fill="#54596e"/><path d="m197.972656 218.925781v-6.824219h-54.613281c-1.796875 0-3.554687.726563-4.828125 1.996094-1.269531 1.269532-1.996094 3.03125-1.996094 4.828125 0 33.9375 27.503906 61.4375 61.4375 61.441407 1.796875 0 3.554688-.730469 4.828125-2 1.269531-1.269532 2-3.03125 2-4.828126v-54.613281c0-1.796875-.730469-3.554687-2-4.828125-1.273437-1.269531-3.03125-1.996094-4.828125-1.996094v6.824219h-6.824218v54.613281h6.824218v-6.824218c-13.214844-.003906-25.121094-5.339844-33.789062-13.996094-8.660156-8.671875-13.992188-20.574219-13.996094-33.792969h-6.828125v6.828125h54.613281v-6.828125h-6.824218zm0 0" fill="#54596e"/><path d="m157.011719 239.40625h27.308593c3.769532 0 6.828126-3.054688 6.828126-6.828125 0-3.769531-3.058594-6.824219-6.828126-6.824219h-27.308593c-3.769531 0-6.824219 3.054688-6.824219 6.824219 0 3.773437 3.054688 6.828125 6.824219 6.828125" fill="#fff"/><path d="m61.441406 177.964844h68.265625v-13.652344h-68.265625" fill="#fff"/><path d="m389.121094 389.59375h-191.148438v-382.292969h191.148438" fill="#d8d8d8"/><g fill="#54596e"><path d="m389.121094 382.765625h-184.320313v-368.640625h184.320313c3.769531 0 6.824218-3.054688 6.824218-6.824219s-3.054687-6.828125-6.824218-6.828125h-191.148438c-1.796875 0-3.554687.730469-4.828125 2-1.269531 1.269532-1.996093 3.03125-1.996093 4.828125v382.292969c0 1.796875.726562 3.554688 2 4.824219 1.269531 1.273437 3.027343 2.003906 4.824218 2.003906h191.148438c3.769531 0 6.824218-3.058594 6.824218-6.828125s-3.054687-6.828125-6.824218-6.828125zm0 0"/><path d="m218.453125 41.433594h6.828125v54.613281c0 3.769531 3.054688 6.828125 6.824219 6.828125s6.828125-3.058594 6.828125-6.828125v-61.441406c0-1.796875-.730469-3.554688-2-4.824219-1.269532-1.273438-3.03125-2-4.828125-2h-13.652344c-3.769531 0-6.828125 3.054688-6.828125 6.824219s3.058594 6.828125 6.828125 6.828125zm0 0"/><path d="m259.414062 130.179688h6.824219v54.613281c0 3.769531 3.058594 6.828125 6.828125 6.828125 3.769532 0 6.828125-3.058594 6.828125-6.828125v-61.441407c0-1.796874-.730469-3.554687-2-4.824218-1.269531-1.273438-3.03125-2-4.828125-2h-13.652344c-3.769531 0-6.828124 3.054687-6.828124 6.824218 0 3.773438 3.058593 6.828126 6.828124 6.828126zm0 0"/><path d="m341.332031 218.925781h6.828125v54.613281c0 3.769532 3.054688 6.828126 6.828125 6.828126 3.769531 0 6.824219-3.058594 6.824219-6.828126v-61.4375c0-1.796874-.726562-3.554687-1.996094-4.828124-1.269531-1.269532-3.03125-2-4.828125-2h-13.65625c-3.769531 0-6.824219 3.054687-6.824219 6.828124 0 3.769532 3.054688 6.824219 6.824219 6.824219zm0 0"/><path d="m320.851562 41.433594h6.828126v54.613281c0 3.769531 3.058593 6.828125 6.828124 6.828125 3.769532 0 6.824219-3.058594 6.824219-6.828125v-61.441406c0-1.796875-.726562-3.554688-1.996093-4.824219-1.269532-1.273438-3.03125-2-4.828126-2h-13.65625c-3.769531 0-6.824218 3.054688-6.824218 6.824219s3.054687 6.828125 6.824218 6.828125zm0 0"/><path d="m300.375 130.179688h6.824219v54.613281c0 3.769531 3.058593 6.828125 6.828125 6.828125 3.769531 0 6.824218-3.058594 6.824218-6.828125v-61.441407c0-1.796874-.726562-3.554687-1.996093-4.824218-1.269531-1.273438-3.03125-2-4.828125-2h-13.652344c-3.773438 0-6.828125 3.054687-6.828125 6.824218 0 3.773438 3.054687 6.828126 6.828125 6.828126zm0 0"/><path d="m218.453125 307.671875h6.828125v54.613281c0 3.773438 3.054688 6.828125 6.824219 6.828125s6.828125-3.054687 6.828125-6.828125v-61.4375c0-1.796875-.730469-3.554687-2-4.828125-1.269532-1.269531-3.03125-2-4.828125-2h-13.652344c-3.769531 0-6.828125 3.058594-6.828125 6.828125 0 3.769532 3.058594 6.824219 6.828125 6.824219zm0 0"/></g><path d="m259.414062 34.605469h34.132813v61.441406h-34.132813zm0 0" fill="#d8d8d8"/><path d="m293.546875 96.046875v-6.828125h-27.308594v-47.785156h20.480469v54.613281h6.828125v-6.828125 6.828125h6.828125v-61.441406c0-1.796875-.730469-3.554688-2-4.824219-1.269531-1.273438-3.03125-2-4.828125-2h-34.132813c-1.796874 0-3.558593.726562-4.828124 1.996094-1.273438 1.269531-2 3.03125-2 4.828125v61.441406c0 1.796875.730468 3.554687 2 4.828125 1.273437 1.269531 3.03125 2 4.828124 2h34.132813c1.796875 0 3.554687-.730469 4.828125-2 1.269531-1.269531 2-3.03125 2-4.828125zm0 0" fill="#54596e"/><path d="m341.332031 123.351562h34.132813v61.441407h-34.132813zm0 0" fill="#d8d8d8"/><path d="m375.464844 184.792969v-6.828125h-27.304688v-47.785156h20.480469v54.613281h6.824219v-6.828125 6.828125h6.828125v-61.441407c0-1.796874-.726563-3.554687-2-4.824218-1.269531-1.273438-3.027344-2-4.828125-2h-34.132813c-1.796875 0-3.554687.726562-4.828125 1.996094-1.269531 1.273437-1.996094 3.03125-1.996094 4.828124v61.441407c0 1.796875.726563 3.554687 2 4.828125 1.269532 1.269531 3.027344 2 4.824219 2h34.132813c1.800781 0 3.558594-.730469 4.828125-2 1.273437-1.269532 2-3.03125 2-4.828125zm0 0" fill="#54596e"/><path d="m279.894531 212.101562h34.132813v61.4375h-34.132813zm0 0" fill="#d8d8d8"/><path d="m314.027344 273.539062v-6.824218h-27.308594v-47.789063h20.480469v54.613281h6.828125v-6.824218 6.824218h6.824218v-61.4375c0-1.796874-.726562-3.554687-1.996093-4.828124-1.269531-1.269532-3.03125-2-4.828125-2h-34.132813c-1.796875 0-3.558593.730468-4.828125 2-1.273437 1.269531-2 3.03125-2 4.828124v61.4375c0 1.796876.730469 3.554688 2 4.828126 1.273438 1.269531 3.03125 2 4.828125 2h34.132813c1.796875 0 3.554687-.730469 4.824218-2 1.273438-1.269532 2-3.03125 2-4.828126zm0 0" fill="#54596e"/><path d="m218.453125 212.101562h34.132813v61.4375h-34.132813zm0 0" fill="#d8d8d8"/><path d="m252.585938 273.539062v-6.824218h-27.304688v-47.789063h20.480469v54.613281h6.824219v-6.824218 6.824218h6.828124v-61.4375c0-1.796874-.730468-3.554687-2-4.828124-1.269531-1.269532-3.03125-2-4.828124-2h-34.132813c-1.796875 0-3.554687.730468-4.828125 2-1.269531 1.269531-2 3.03125-2 4.828124v61.4375c0 1.796876.730469 3.554688 2 4.828126 1.273438 1.269531 3.03125 2 4.828125 2h34.132813c1.796874 0 3.554687-.730469 4.828124-2 1.269532-1.269532 2-3.03125 2-4.828126zm0 0" fill="#54596e"/><path d="m197.972656 123.351562h34.132813v61.441407h-34.132813zm0 0" fill="#d8d8d8"/><path d="m232.105469 184.792969v-6.828125h-27.304688v-47.785156h20.480469v54.613281h6.824219v-6.828125 6.828125h6.828125v-61.441407c0-1.796874-.730469-3.554687-2-4.824218-1.269532-1.273438-3.03125-2-4.828125-2h-34.132813c-1.796875 0-3.554687.726562-4.828125 1.996094-1.269531 1.273437-1.996093 3.03125-1.996093 4.828124v61.441407c0 1.796875.726562 3.554687 2 4.828125 1.269531 1.269531 3.027343 2 4.824218 2h34.132813c1.796875 0 3.554687-.730469 4.828125-2 1.269531-1.269532 2-3.03125 2-4.828125zm0 0" fill="#54596e"/><path d="m259.414062 300.847656h34.132813v61.4375h-34.132813zm0 0" fill="#d8d8d8"/><path d="m293.546875 362.285156v-6.824218h-27.308594v-47.789063h20.480469v54.613281h6.828125v-6.824218 6.824218h6.828125v-61.4375c0-1.796875-.730469-3.554687-2-4.828125-1.269531-1.269531-3.03125-2-4.828125-2h-34.132813c-1.796874 0-3.558593.730469-4.828124 2-1.273438 1.269531-2 3.03125-2 4.828125v61.4375c0 1.796875.730468 3.554688 2 4.828125 1.273437 1.269531 3.03125 2 4.828124 2h34.132813c1.796875 0 3.554687-.730469 4.828125-2 1.269531-1.269531 2-3.03125 2-4.828125zm0 0" fill="#54596e"/><path d="m320.851562 300.847656h34.136719v61.4375h-34.136719zm0 0" fill="#d8d8d8"/><path d="m354.988281 362.285156v-6.824218h-27.308593v-47.789063h20.480468v54.613281h6.828125v-6.824218 6.824218h6.824219v-61.4375c0-1.796875-.726562-3.554687-1.996094-4.828125-1.269531-1.269531-3.03125-2-4.828125-2h-34.136719c-1.796874 0-3.554687.730469-4.828124 2-1.269532 1.269531-1.996094 3.03125-1.996094 4.828125v61.4375c0 1.796875.726562 3.554688 2 4.828125 1.269531 1.269531 3.027344 2 4.824218 2h34.136719c1.796875 0 3.554688-.730469 4.824219-2 1.273438-1.269531 2-3.03125 2-4.828125zm0 0" fill="#54596e"/></svg>